<svg xmlns="http://www.w3.org/2000/svg" viewBox="0 0 257.39 200"><defs><style>.cls-1{fill:#5a4;}.cls-2{fill:#152;}</style></defs><title>check</title><g id="Layer_2" data-name="Layer 2"><g id="Layer_1-2" data-name="Layer 1"><path class="cls-1" d="M114.29,186H100.06V171.67H85.71V157.33H71.37V143H57V128.63H42.67V114.29H28.33V99.94H14V85.71H28.33V71.37H42.67V57H56.9V71.37H71.25V85.71H85.6v14.35H99.94c0,1.88,1.49,3.8,1.5,5.68,0,8.19-.5,7.11,7.17,4.3,1.22-.44,2.68,1.51,2.87,0,.4-3.25,2.9-6.69,2.93-10h14.34V85.71H143.1V71.37h14.35V57h14.34V42.67h14.35V28.33h14.35V14h14.23V28.33h14.34V42.67h14.35V56.9H229.06V71.25H214.72V85.59H200.37V99.94H186v14.35H171.68v14.34H157.33V143H143v14.35H128.64v14.34H114.29Z"/><path class="cls-2" d="M200.34,13.83V0h14.52V13.83l-.14.15H200.49Z"/><path class="cls-2" d="M186,28.18V13.83h14.34l.15.15V28.33H186.14Z"/><path class="cls-2" d="M214.86,13.83h14.35V28.18l-.15.15H214.72V14Z"/><path class="cls-2" d="M171.65,42.53V28.18H186l.14.15V42.67H171.79Z"/><path class="cls-2" d="M229.21,28.18h14.34V42.53l-.14.14H229.06V28.33Z"/><path class="cls-2" d="M42.53,56.87V43H57.05V56.87L56.9,57H42.67Z"/><path class="cls-2" d="M157.3,56.87V42.53h14.35l.14.14V57H157.45Z"/><path class="cls-2" d="M243.55,42.53h13.84V57.05H243.56l-.15-.15V42.67Z"/><path class="cls-2" d="M28.18,71.22V56.87H42.53l.14.15V71.37H28.33Z"/><path class="cls-2" d="M57.05,56.87H71.39V71.22l-.14.15H56.9V57Z"/><path class="cls-2" d="M143,71.22V56.87H157.3l.15.15V71.37H143.1Z"/><path class="cls-2" d="M243.56,57.05V71.39H229.21l-.15-.14V56.9h14.35Z"/><path class="cls-2" d="M13.84,85.57V71.22H28.18l.15.15V85.71H14Z"/><path class="cls-2" d="M71.39,71.22H85.74V85.57l-.14.14H71.25V71.37Z"/><path class="cls-2" d="M128.61,85.57V71.22H143l.14.15V85.71H128.75Z"/><path class="cls-2" d="M229.21,71.39V85.74H214.86l-.14-.15V71.25h14.34Z"/><path class="cls-2" d="M13.83,100.09H0V85.57H13.84l.14.14V99.94Z"/><path class="cls-2" d="M85.74,85.57h14.35V99.91l-.15.15H85.6V85.71Z"/><path class="cls-2" d="M114.26,99.91V85.57h14.35l.14.14v14.35H114.41Z"/><path class="cls-2" d="M214.86,85.74v14.35H200.51l-.14-.15V85.59h14.35Z"/><path class="cls-2" d="M28.18,114.43H13.83V100.09l.15-.15H28.33v14.35Z"/><path class="cls-2" d="M200.51,100.09v14.34H186.17l-.15-.14V99.94h14.35Z"/><path class="cls-2" d="M42.53,128.78H28.18V114.43l.15-.14H42.67v14.34Z"/><path class="cls-2" d="M186.17,114.43v14.35H171.82l-.14-.15V114.29H186Z"/><path class="cls-2" d="M56.87,143.13H42.53V128.78l.14-.15H57V143Z"/><path class="cls-2" d="M171.82,128.78v14.35H157.48l-.15-.15V128.63h14.35Z"/><path class="cls-2" d="M71.22,157.47H56.87V143.13L57,143H71.37v14.35Z"/><path class="cls-2" d="M157.48,143.13v14.34H143.13l-.15-.14V143h14.35Z"/><path class="cls-2" d="M85.57,171.82H71.22V157.47l.15-.14H85.71v14.34Z"/><path class="cls-2" d="M143.13,157.47v14.35H128.78l-.14-.15V157.33H143Z"/><path class="cls-2" d="M99.91,186.17H85.57V171.82l.14-.15h14.35V186Z"/><path class="cls-2" d="M128.78,171.82v14.35H114.43l-.14-.15V171.67h14.35Z"/><path class="cls-2" d="M114.43,186.17V200H99.91V186.17l.15-.15h14.23Z"/><path class="cls-2" d="M100.14,100h14.21v15.62l-.15.16H100V100.16Z"/></g></g></svg>