<svg xmlns="http://www.w3.org/2000/svg" viewBox="0 0 200 200"><defs><style>.cls-1{fill:#931;}.cls-2{fill:#d71;}</style></defs><title>x</title><g id="Layer_2" data-name="Layer 2"><g id="Layer_1-2" data-name="Layer 1"><path class="cls-1" d="M25.89,8.46V0h8.75V8.46l0,0H25.93Z"/><path class="cls-1" d="M165.36,8.46V0h8.75V8.46l0,0h-8.68Z"/><path class="cls-1" d="M17.18,17.18V8.46h8.71l0,0v8.72H17.21Z"/><path class="cls-1" d="M34.64,8.46h8.72v8.72l0,0H34.61V8.49Z"/><path class="cls-1" d="M156.64,17.18V8.46h8.72l0,0v8.72h-8.71Z"/><path class="cls-1" d="M174.11,8.46h8.71v8.72l0,0h-8.72V8.49Z"/><path class="cls-1" d="M8.46,25.89V17.18h8.72l0,0v8.72H8.49Z"/><path class="cls-1" d="M43.36,17.18h8.71v8.71l0,0H43.32V17.21Z"/><path class="cls-1" d="M147.93,25.89V17.18h8.71l0,0v8.72H148Z"/><path class="cls-1" d="M182.82,17.18h8.72v8.71l0,0h-8.72V17.21Z"/><path class="cls-1" d="M8.46,34.64H0V25.89H8.46l0,0v8.68Z"/><path class="cls-1" d="M52.07,25.89h8.72v8.72l0,0H52V25.93Z"/><path class="cls-1" d="M139.21,34.61V25.89h8.72l0,0v8.71h-8.72Z"/><path class="cls-1" d="M191.54,25.89H200v8.75h-8.46l0,0V25.93Z"/><path class="cls-1" d="M17.18,43.36H8.46V34.64l0,0h8.72v8.71Z"/><path class="cls-1" d="M60.79,34.61h8.72v8.72l0,0H60.76V34.64Z"/><path class="cls-1" d="M130.49,43.33V34.61h8.72l0,0v8.72h-8.71Z"/><path class="cls-1" d="M191.54,34.64v8.72h-8.72l0,0V34.61h8.72Z"/><path class="cls-1" d="M25.89,52.07H17.18V43.36l0,0h8.72V52Z"/><path class="cls-1" d="M69.51,43.33h8.71V52l0,0H69.47V43.36Z"/><path class="cls-1" d="M121.78,52V43.33h8.71l0,0v8.72h-8.72Z"/><path class="cls-1" d="M182.82,43.36v8.71h-8.71l0,0V43.32h8.72Z"/><path class="cls-1" d="M34.61,60.79H25.89V52.07l0,0h8.71v8.72Z"/><path class="cls-1" d="M113.06,60.76V52h8.72l0,0v8.71h-8.72Z"/><path class="cls-1" d="M174.11,52.07v8.72h-8.72l0,0V52h8.71Z"/><path class="cls-1" d="M43.33,69.51H34.61V60.79l0,0h8.72v8.71Z"/><path class="cls-1" d="M104.34,69.48V60.76h8.72l0,0v8.72h-8.71Z"/><path class="cls-1" d="M165.39,60.79v8.72h-8.72l0,0V60.76h8.72Z"/><path class="cls-1" d="M52,78.22H43.33V69.51l0,0h8.72v8.72Z"/><path class="cls-1" d="M95.66,69.48h8.68l0,0v8.41H95.62V69.51Z"/><path class="cls-1" d="M156.67,69.51v8.71H148l0,0V69.47h8.72Z"/><path class="cls-1" d="M60.76,86.94H52V78.22l0,0h8.71v8.72Z"/><path class="cls-1" d="M148,78.22v8.72h-8.72l0,0V78.19h8.71Z"/><path class="cls-1" d="M69.48,95.66H60.76V86.94l0,0h8.72v8.71Z"/><path class="cls-1" d="M139.24,86.94v8.72h-8.72l0,0V86.91h8.72Z"/><path class="cls-1" d="M69.48,104.34V95.66l0,0h8.41v8.76H69.51Z"/><path class="cls-1" d="M130.52,95.66v8.68l0,0h-8.41V95.62h8.41Z"/><path class="cls-1" d="M60.76,113.06v-8.72h8.72l0,0v8.71H60.79Z"/><path class="cls-1" d="M130.52,104.34h8.72v8.72l0,0h-8.72v-8.71Z"/><path class="cls-1" d="M52,121.78v-8.72h8.72l0,0v8.72H52.08Z"/><path class="cls-1" d="M139.24,113.06H148v8.72l0,0h-8.71v-8.72Z"/><path class="cls-1" d="M43.33,130.49v-8.71H52l0,0v8.72H43.36Z"/><path class="cls-1" d="M104.34,130.52H95.66l0,0v-8.41h8.76v8.41Z"/><path class="cls-1" d="M148,121.78h8.71v8.71l0,0h-8.72v-8.72Z"/><path class="cls-1" d="M34.61,139.21v-8.72h8.72l0,0v8.71H34.64Z"/><path class="cls-1" d="M95.66,130.52v8.72H86.94l0,0v-8.72h8.71Z"/><path class="cls-1" d="M113.06,139.24h-8.72v-8.72l0,0h8.71v8.72Z"/><path class="cls-1" d="M156.67,130.49h8.72v8.72l0,0h-8.72v-8.71Z"/><path class="cls-1" d="M25.89,147.93v-8.72h8.72l0,0V148H25.93Z"/><path class="cls-1" d="M86.94,139.24V148H78.22l0,0v-8.71h8.72Z"/><path class="cls-1" d="M121.78,148h-8.72v-8.72l0,0h8.72v8.71Z"/><path class="cls-1" d="M165.39,139.21h8.72v8.72l0,0h-8.71v-8.72Z"/><path class="cls-1" d="M17.18,156.64v-8.71h8.71l0,0v8.72H17.21Z"/><path class="cls-1" d="M78.22,148v8.71H69.51l0,0v-8.72h8.72Z"/><path class="cls-1" d="M130.49,156.67h-8.71V148l0,0h8.72v8.72Z"/><path class="cls-1" d="M174.11,147.93h8.71v8.71l0,0h-8.72V148Z"/><path class="cls-1" d="M8.46,165.36v-8.72h8.72l0,0v8.71H8.49Z"/><path class="cls-1" d="M69.51,156.67v8.72H60.79l0,0v-8.72h8.71Z"/><path class="cls-1" d="M139.21,165.39h-8.72v-8.72l0,0h8.71v8.72Z"/><path class="cls-1" d="M182.82,156.64h8.72v8.72l0,0h-8.72v-8.71Z"/><path class="cls-1" d="M8.46,174.11H0v-8.75H8.46l0,0v8.68Z"/><path class="cls-1" d="M60.79,165.39v8.72H52.07l0,0v-8.71h8.72Z"/><path class="cls-1" d="M147.93,174.11h-8.72v-8.72l0,0H148v8.71Z"/><path class="cls-1" d="M191.54,165.36H200v8.75h-8.46l0,0v-8.68Z"/><path class="cls-1" d="M17.18,182.82H8.46v-8.71l0,0h8.72v8.72Z"/><path class="cls-1" d="M52.07,174.11v8.71H43.36l0,0v-8.72H52Z"/><path class="cls-1" d="M156.64,182.82h-8.71v-8.71l0,0h8.72v8.72Z"/><path class="cls-1" d="M191.54,174.11v8.71h-8.72l0,0v-8.72h8.72Z"/><path class="cls-1" d="M25.89,191.54H17.18v-8.72l0,0h8.72v8.72Z"/><path class="cls-1" d="M43.36,182.82v8.72H34.64l0,0v-8.72h8.71Z"/><path class="cls-1" d="M165.36,191.54h-8.72v-8.72l0,0h8.71v8.72Z"/><path class="cls-1" d="M182.82,182.82v8.72h-8.71l0,0v-8.72h8.72Z"/><path class="cls-1" d="M34.64,191.54V200H25.89v-8.46l0,0h8.68Z"/><path class="cls-1" d="M174.11,191.54V200h-8.75v-8.46l0,0h8.68Z"/><path class="cls-2" d="M78.19,52.08c0,2.71,1,2.69,1,6,3.07,0,4.59,2.11,7.41,2.11,2.12,3.18.27,6,.27,9.34h8.71v8.41h8.76V69.51h8.71V60.79h8.72V52.08h8.72V43.36h8.71V34.64H148V25.93h8.72V17.21h8.71V8.49h8.68v8.72h8.72v8.72h8.72v8.68h-8.72v8.71h-8.72V52h-8.71v8.72h-8.72v8.71h-8.72v8.72h-8.71v8.72h-8.72v8.71h-8.41v8.76h8.41v8.71h8.72v8.72h8.71v8.72h8.72v8.71h8.72V148h8.71v8.72h8.72v8.71h8.72v8.68h-8.72v8.72h-8.72v8.72h-8.68v-8.72h-8.71v-8.72H148v-8.71h-8.72v-8.72h-8.71v-8.72h-8.72v-8.71h-8.72v-8.72h-8.71v-8.41H95.62v8.41H86.91v8.72H78.19v8.71H69.47v8.72H60.76v8.72H52v8.71H43.32v8.72H34.61v8.72H25.93v-8.72H17.21v-8.72H8.49v-8.68h8.72v-8.71h8.72V148h8.71v-8.72h8.72v-8.71h8.72v-8.72h8.71v-8.72h8.72v-8.71h8.41V95.62H69.51V86.91H60.79V78.19H52.08V69.47H43.36V60.76H34.64V52H25.93V43.32H17.21V34.61H8.49V25.93h8.72V17.21h8.72V8.49h8.68v8.72h8.71v8.72H52v8.71h8.72v8.72h8.71v8.72Z"/><path class="cls-1" d="M86.94,60.76h8.72v8.72l0,0H86.91V60.79Z"/><path class="cls-1" d="M78.1,51.84h8.72v8.71l0,0H78.07V51.87Z"/></g></g></svg>